<svg width="25" height="23" viewBox="0 0 25 23" fill="none" xmlns="http://www.w3.org/2000/svg">
<g id="Group">
<path id="Vector" d="M24.8254 8.47439C24.8254 8.43829 24.8173 8.38378 24.8033 8.35237C24.7664 8.21859 24.6844 8.09639 24.5617 8.01107L21.1261 5.62289V3.06276C21.1261 2.72339 20.8509 2.44814 20.5115 2.44814H16.5591L13.1961 0.110105C12.9859 -0.0361923 12.7069 -0.0368017 12.496 0.108886L9.11138 2.44814H5.17622C4.83675 2.44814 4.56159 2.72339 4.56159 3.06276V5.59275L1.10934 7.97873C0.939516 8.0961 0.847641 8.28374 0.844734 8.4756C0.844547 8.47921 0.84375 8.48263 0.84375 8.48639L0.862078 21.8099C0.862312 21.9729 0.927281 22.1291 1.04264 22.2442C1.15786 22.3591 1.31395 22.4236 1.4767 22.4236C1.47703 22.4236 1.47727 22.4236 1.47755 22.4236L24.23 22.3924C24.5693 22.3919 24.8442 22.1163 24.8438 21.7769L24.8254 8.47439ZM21.1261 7.12003L23.0901 8.48493L21.1261 9.85031V7.12003ZM12.8445 1.36265L14.4059 2.44809H11.274L12.8445 1.36265ZM5.79084 3.67739H19.8968V10.7049L15.1608 13.9975L13.2298 12.4997C13.2268 12.4973 13.2242 12.4959 13.2213 12.4938C13.0055 12.3319 12.7003 12.3259 12.4763 12.4997L10.5313 14.0084L5.79084 10.7321V3.67739ZM4.56159 7.08698V9.8826L2.53912 8.48484L4.56159 7.08698ZM2.07459 9.65873L9.5122 14.7988L2.08959 20.5562L2.07459 9.65873ZM3.27539 21.1919L12.8531 13.763L22.3964 21.1656L3.27539 21.1919ZM16.1786 14.787L23.5978 9.6291L23.6128 20.5537L16.1786 14.787Z" fill="black"/>
</g>
</svg>
