<svg width="25" height="25" viewBox="0 0 32 32" fill="none" xmlns="http://www.w3.org/2000/svg">
<path d="M24.9455 27.1547L21.7815 20.4618C21.7184 20.3283 21.609 20.2259 21.4778 20.1701L19.9037 19.4694L22.6311 14.8982C22.6376 14.8872 22.6438 14.8761 22.6496 14.8648C23.1919 13.8064 23.4668 12.6627 23.4668 11.4656C23.4668 9.45195 22.6772 7.5641 21.2433 6.14993C19.8097 4.73609 17.9104 3.97245 15.8955 4.00076C13.9386 4.0279 12.096 4.81395 10.7071 6.2142C9.31843 7.61435 8.54724 9.46324 8.53562 11.4204C8.52849 12.6164 8.8111 13.8074 9.3527 14.8647C9.35851 14.876 9.36465 14.8872 9.37117 14.8982L12.0985 19.4693L10.5154 20.1738C10.3859 20.2315 10.2813 20.3336 10.2208 20.4618L7.05685 27.1547C6.95096 27.3785 6.99564 27.6446 7.16879 27.8217C7.3419 27.9987 7.60684 28.0495 7.8331 27.9488L11.7968 26.1841L15.7604 27.9488C15.9137 28.017 16.0888 28.017 16.2421 27.9488L20.2058 26.1841L24.1695 27.9488C24.2469 27.9832 24.3289 28 24.4102 28C24.5663 28 24.7199 27.9382 24.8338 27.8217C25.0068 27.6446 25.0514 27.3786 24.9455 27.1547ZM10.3984 14.3081C9.94229 13.4113 9.71406 12.4422 9.7201 11.4275C9.74017 8.03238 12.5179 5.23203 15.912 5.18501C17.6073 5.16223 19.2056 5.80371 20.4117 6.99326C21.6181 8.18309 22.2825 9.7714 22.2825 11.4657C22.2825 12.4669 22.0543 13.4231 21.6041 14.3081L16.5098 22.8463C16.3543 23.1069 16.1024 23.135 16.0013 23.135C15.9001 23.135 15.6482 23.1069 15.4927 22.8463L10.3984 14.3081ZM20.4466 24.9949C20.2932 24.9267 20.1181 24.9267 19.9648 24.9949L16.0012 26.7595L12.0375 24.9949C11.8842 24.9267 11.7091 24.9267 11.5558 24.9949L8.80993 26.2174L11.1976 21.1667L12.7097 20.4937L14.4754 23.4531C14.7991 23.9955 15.3694 24.3194 16.0011 24.3194C16.6327 24.3194 17.2031 23.9955 17.5267 23.4531L19.2924 20.4938L20.8046 21.1669L23.1922 26.2174L20.4466 24.9949Z" fill="black"/>
<path d="M16.0042 8.15955C14.3896 8.15955 13.0762 9.473 13.0762 11.0875C13.0762 12.702 14.3896 14.0154 16.0042 14.0154C17.6187 14.0155 18.9321 12.702 18.9321 11.0875C18.9321 9.473 17.6187 8.15955 16.0042 8.15955ZM16.0042 12.7324C15.0972 12.7324 14.3592 11.9946 14.3592 11.0875C14.3592 10.1805 15.0971 9.44258 16.0042 9.44258C16.9112 9.44258 17.6491 10.1805 17.6491 11.0875C17.6491 11.9945 16.9112 12.7324 16.0042 12.7324Z" fill="black"/>
</svg>
